<svg width="542" height="517" viewBox="0 0 542 517" fill="none" xmlns="http://www.w3.org/2000/svg">
<path d="M387.5 74.5C365.1 121.7 395.167 150.667 412.5 157C422.833 157 440.5 157.5 476 171.5C491.5 164 544 166 521 145.5C551.4 108.7 529 79 514 66V12.5711C514 8.11654 509.095 6.3121 506.333 9.80701C499.073 18.9937 487.979 33.1898 476 46.5C461.2 34.5 435.833 43.5 425 49.5L393.873 11.3698C390.9 7.72758 385.279 9.81691 385.506 14.5132C386.236 29.6596 387.5 52.6021 387.5 74.5Z" stroke="black" stroke-width="10"/>
<path d="M142.729 347L105.399 165.5H517.54L474.633 347H142.729Z" stroke="black" stroke-width="30"/>
<path d="M15 63.5C6.71573 63.5 0 70.2157 0 78.5C0 86.7843 6.71573 93.5 15 93.5V63.5ZM85.5 78.5L100.109 75.0989L97.4091 63.5H85.5V78.5ZM15 93.5H85.5V63.5H15V93.5ZM70.8907 81.9011L92.8907 176.401L122.109 169.599L100.109 75.0989L70.8907 81.9011Z" fill="black"/>
<line x1="128" y1="254" x2="496" y2="254" stroke="black" stroke-width="30"/>
<line x1="221" y1="161" x2="221" y2="341" stroke="black" stroke-width="30"/>
<line x1="396" y1="161" x2="396" y2="341" stroke="black" stroke-width="30"/>
<circle cx="202" cy="447" r="55" stroke="black" stroke-width="30"/>
<circle cx="417" cy="447" r="55" stroke="black" stroke-width="30"/>
<line x1="251" y1="432" x2="362" y2="432" stroke="black" stroke-width="30"/>
<path d="M291.941 52.7972C293.21 50.3444 292.25 47.3276 289.797 46.059C287.344 44.7903 284.328 45.7502 283.059 48.203L291.941 52.7972ZM265 54.0001L269 51.0001L269 51.0001L265 54.0001ZM273.93 155.834C276.651 139.748 285.082 118.187 301.007 105.044C308.871 98.5542 318.59 94.0825 330.552 93.2618C342.562 92.4377 357.173 95.2735 374.784 103.982L379.216 95.0181C360.427 85.7266 344.046 82.3124 329.867 83.2852C315.639 84.2614 303.97 89.6334 294.642 97.3312C276.185 112.563 267.016 136.752 264.07 154.166L273.93 155.834ZM283.059 48.203C280.987 52.2087 278.252 54.2591 276.087 54.7477C274.359 55.1376 271.845 54.793 269 51.0001L261 57.0001C265.655 63.2071 271.891 65.9458 278.288 64.5024C284.248 63.1576 289.013 58.4581 291.941 52.7972L283.059 48.203ZM269 51.0001C266.661 47.8816 266.533 45.3468 267.211 43.2523C267.977 40.8856 270.034 38.3463 273.319 36.1529C276.557 33.9912 280.595 32.4417 284.591 31.8504C288.627 31.2534 292.197 31.6887 294.764 32.9722L299.236 24.0279C294.303 21.5614 288.512 21.1616 283.128 21.9581C277.705 22.7603 272.264 24.8331 267.766 27.8362C263.316 30.8077 259.379 34.9758 257.697 40.173C255.927 45.6424 256.896 51.5279 261 57.0001L269 51.0001ZM294.764 32.9722C301.161 36.1706 308.516 43.322 310.727 53.7899C312.898 64.069 310.337 78.71 294.666 97.4288L302.334 103.848C319.313 83.5668 323.503 65.8887 320.511 51.7235C317.559 37.7473 307.839 28.3295 299.236 24.0279L294.764 32.9722Z" fill="black"/>
<circle cx="502.5" cy="97.5" r="8.5" fill="black"/>
<circle cx="452.5" cy="101.5" r="8.5" fill="black"/>
<line x1="384.121" y1="118.172" x2="414.172" y2="113.879" stroke="black" stroke-width="5" stroke-linecap="round"/>
<line x1="387.819" y1="128.968" x2="414.968" y2="122.181" stroke="black" stroke-width="5" stroke-linecap="round"/>
<line x1="394.413" y1="139.759" x2="417.759" y2="130.587" stroke="black" stroke-width="5" stroke-linecap="round"/>
<ellipse cx="493" cy="119" rx="10" ry="7" fill="black"/>
<path d="M482.5 138C485.5 136.833 493 133 493 124.5C493 130.9 499 135.167 502 136.5" stroke="black" stroke-width="5" stroke-linecap="round"/>
</svg>
