<svg width="614" height="410" viewBox="0 0 614 410" fill="none" xmlns="http://www.w3.org/2000/svg">
<path d="M161.732 392.626L119.433 186.965H586.439L537.819 392.626H161.732Z" stroke="black" stroke-width="33.9936"/>
<path d="M17 71.3866C7.61292 71.3866 0.00319481 78.9963 0.00319481 88.3834C0.00319481 97.7705 7.61292 105.38 17 105.38V71.3866ZM96.885 88.3834L113.439 84.5295L110.379 71.3866H96.885V88.3834ZM17 105.38H96.885V71.3866H17V105.38ZM80.3309 92.2373L105.259 199.317L138.368 191.609L113.439 84.5295L80.3309 92.2373Z" fill="black"/>
<line x1="145.043" y1="287.246" x2="562.031" y2="287.246" stroke="black" stroke-width="33.9936"/>
<line x1="250.423" y1="181.866" x2="250.423" y2="385.827" stroke="black" stroke-width="33.9936"/>
<line x1="448.719" y1="181.866" x2="448.719" y2="385.827" stroke="black" stroke-width="33.9936"/>
<path d="M439.087 83.8509C413.705 137.334 447.775 170.157 467.415 177.333C479.124 177.333 499.143 177.9 539.368 193.764C556.932 185.265 616.421 187.531 590.359 164.302C624.806 122.604 599.424 88.9499 582.427 74.2194V13.678C582.427 8.63046 576.869 6.5858 573.739 10.546C565.512 20.9556 552.942 37.0414 539.368 52.1235C522.598 38.5261 493.855 48.7242 481.579 55.5229L446.309 12.3168C442.94 8.18972 436.571 10.5572 436.828 15.8786C437.655 33.0413 439.087 59.038 439.087 83.8509Z" stroke="black" stroke-width="11.3312"/>
<path d="M330.808 59.259C332.245 56.4797 331.157 53.0614 328.378 51.6238C325.599 50.1863 322.181 51.2739 320.743 54.0532L330.808 59.259ZM300.28 60.622L304.812 57.2226L300.28 60.622ZM310.399 176.012C313.482 157.785 323.035 133.353 341.081 118.461C349.992 111.107 361.004 106.04 374.558 105.11C388.167 104.177 404.723 107.39 424.678 117.258L429.701 107.1C408.41 96.572 389.849 92.7033 373.782 93.8056C357.661 94.9117 344.438 100.999 333.869 109.721C312.954 126.981 302.564 154.39 299.226 174.122L310.399 176.012ZM320.743 54.0532C318.395 58.5922 315.296 60.9156 312.843 61.4691C310.885 61.911 308.036 61.5205 304.812 57.2226L295.748 64.0214C301.023 71.0546 308.089 74.158 315.337 72.5225C322.09 70.9986 327.49 65.6735 330.808 59.259L320.743 54.0532ZM304.812 57.2226C302.162 53.6891 302.018 50.8168 302.786 48.4436C303.654 45.7617 305.984 42.8844 309.707 40.3991C313.375 37.9496 317.951 36.1938 322.48 35.5238C327.052 34.8473 331.098 35.3406 334.006 36.7949L339.074 26.66C333.484 23.865 326.922 23.412 320.821 24.3146C314.676 25.2237 308.511 27.5723 303.415 30.9752C298.371 34.3423 293.911 39.0653 292.005 44.9543C289.999 51.1518 291.097 57.8208 295.748 64.0214L304.812 57.2226ZM334.006 36.7949C341.254 40.419 349.589 48.5225 352.094 60.3839C354.554 72.0313 351.653 88.6214 333.895 109.832L342.584 117.106C361.823 94.1247 366.57 74.0933 363.181 58.0424C359.836 42.2057 348.822 31.5342 339.074 26.66L334.006 36.7949Z" fill="black"/>
<circle cx="569.396" cy="109.913" r="9.63152" fill="black"/>
<circle cx="512.74" cy="114.445" r="9.63152" fill="black"/>
<line x1="435.259" y1="133.336" x2="469.309" y2="128.472" stroke="black" stroke-width="5.6656" stroke-linecap="round"/>
<line x1="439.449" y1="145.57" x2="470.212" y2="137.879" stroke="black" stroke-width="5.6656" stroke-linecap="round"/>
<line x1="446.92" y1="157.797" x2="473.374" y2="147.405" stroke="black" stroke-width="5.6656" stroke-linecap="round"/>
<ellipse cx="558.631" cy="134.275" rx="11.3312" ry="7.93184" fill="black"/>
<path d="M546.734 155.804C550.133 154.482 558.632 150.138 558.632 140.507C558.632 147.759 565.43 152.594 568.83 154.104" stroke="black" stroke-width="5.6656" stroke-linecap="round"/>
</svg>
